<svg xmlns="http://www.w3.org/2000/svg" xmlns:xlink="http://www.w3.org/1999/xlink" width="100" zoomAndPan="magnify" viewBox="0 0 75 74.999997" height="100" preserveAspectRatio="xMidYMid meet" version="1.0"><defs><clipPath id="dd6862f185"><path d="M 0.898438 0.824219 L 74.382812 0.824219 L 74.382812 72.898438 L 0.898438 72.898438 Z M 0.898438 0.824219 " clip-rule="nonzero"/></clipPath><clipPath id="7969696c9c"><path d="M 37.539062 0.824219 C 17.304688 0.824219 0.898438 16.960938 0.898438 36.863281 C 0.898438 56.765625 17.304688 72.898438 37.539062 72.898438 C 57.773438 72.898438 74.175781 56.765625 74.175781 36.863281 C 74.175781 16.960938 57.773438 0.824219 37.539062 0.824219 Z M 37.539062 0.824219 " clip-rule="nonzero"/></clipPath></defs><g clip-path="url(#dd6862f185)"><g clip-path="url(#7969696c9c)"><path fill="#ffffff" d="M 0.898438 0.824219 L 74.101562 0.824219 L 74.101562 72.898438 L 0.898438 72.898438 Z M 0.898438 0.824219 " fill-opacity="1" fill-rule="nonzero"/></g></g><path fill="#4fbb87" d="M 16.902344 20.53125 C 17.441406 19.992188 18.3125 19.992188 18.851562 20.53125 L 27.214844 28.894531 L 26.761719 17.457031 C 26.734375 16.695312 27.324219 16.054688 28.085938 16.023438 L 32.566406 15.847656 C 33.328125 15.816406 33.96875 16.410156 34 17.171875 L 34.492188 29.589844 L 42.980469 21.097656 C 43.519531 20.558594 44.394531 20.558594 44.933594 21.097656 L 48.101562 24.269531 C 48.640625 24.808594 48.640625 25.679688 48.101562 26.21875 L 19.421875 54.902344 C 18.882812 55.441406 18.007812 55.441406 17.46875 54.902344 L 14.300781 51.730469 C 13.761719 51.191406 13.761719 50.320312 14.300781 49.78125 L 22.789062 41.289062 L 10.371094 40.796875 C 9.609375 40.769531 9.019531 40.125 9.046875 39.363281 L 9.226562 34.886719 C 9.257812 34.125 9.898438 33.53125 10.660156 33.5625 L 22.097656 34.015625 L 13.730469 25.652344 C 13.191406 25.113281 13.191406 24.238281 13.730469 23.699219 Z M 16.902344 20.53125 " fill-opacity="1" fill-rule="evenodd"/><path fill="#daf1e6" d="M 58.097656 52.441406 C 57.558594 52.980469 56.683594 52.980469 56.144531 52.441406 L 47.78125 44.078125 L 48.234375 55.515625 C 48.265625 56.277344 47.671875 56.917969 46.910156 56.945312 L 42.429688 57.125 C 41.671875 57.15625 41.027344 56.5625 41 55.800781 L 40.507812 43.382812 L 32.015625 51.875 C 31.476562 52.410156 30.601562 52.410156 30.066406 51.875 L 26.894531 48.703125 C 26.355469 48.164062 26.355469 47.292969 26.894531 46.753906 L 55.578125 18.070312 C 56.117188 17.53125 56.988281 17.53125 57.527344 18.070312 L 60.699219 21.242188 C 61.234375 21.78125 61.234375 22.652344 60.699219 23.191406 L 52.207031 31.683594 L 64.625 32.175781 C 65.386719 32.203125 65.980469 32.847656 65.949219 33.605469 L 65.769531 38.085938 C 65.742188 38.847656 65.097656 39.441406 64.339844 39.410156 L 52.902344 38.957031 L 61.265625 47.320312 C 61.804688 47.859375 61.804688 48.734375 61.265625 49.273438 Z M 58.097656 52.441406 " fill-opacity="1" fill-rule="evenodd"/></svg>