<svg xmlns="http://www.w3.org/2000/svg" xmlns:xlink="http://www.w3.org/1999/xlink" width="100" zoomAndPan="magnify" viewBox="0 0 75 74.999997" height="100" preserveAspectRatio="xMidYMid meet" version="1.0"><defs><clipPath id="2f07a60350"><path d="M 0.898438 0.824219 L 74.382812 0.824219 L 74.382812 72.898438 L 0.898438 72.898438 Z M 0.898438 0.824219 " clip-rule="nonzero"/></clipPath><clipPath id="a70ae7f320"><path d="M 37.539062 0.824219 C 17.304688 0.824219 0.898438 16.960938 0.898438 36.863281 C 0.898438 56.765625 17.304688 72.898438 37.539062 72.898438 C 57.773438 72.898438 74.175781 56.765625 74.175781 36.863281 C 74.175781 16.960938 57.773438 0.824219 37.539062 0.824219 Z M 37.539062 0.824219 " clip-rule="nonzero"/></clipPath></defs><g clip-path="url(#2f07a60350)"><g clip-path="url(#a70ae7f320)"><path fill="#4fbb87" d="M 0.898438 0.824219 L 74.101562 0.824219 L 74.101562 72.898438 L 0.898438 72.898438 Z M 0.898438 0.824219 " fill-opacity="1" fill-rule="nonzero"/></g></g><path fill="#daf1e6" d="M 18.703125 14.980469 C 19.394531 14.289062 20.515625 14.289062 21.207031 14.980469 L 31.949219 25.722656 L 31.367188 11.035156 C 31.328125 10.058594 32.089844 9.234375 33.066406 9.195312 L 38.816406 8.96875 C 39.792969 8.929688 40.617188 9.691406 40.65625 10.667969 L 41.289062 26.613281 L 52.191406 15.710938 C 52.882812 15.019531 54.003906 15.019531 54.699219 15.710938 L 58.769531 19.78125 C 59.460938 20.472656 59.460938 21.59375 58.769531 22.285156 L 21.9375 59.117188 C 21.246094 59.808594 20.125 59.808594 19.433594 59.117188 L 15.363281 55.046875 C 14.671875 54.355469 14.671875 53.234375 15.363281 52.542969 L 26.265625 41.640625 L 10.320312 41.007812 C 9.339844 40.96875 8.582031 40.144531 8.617188 39.167969 L 8.847656 33.414062 C 8.886719 32.4375 9.710938 31.675781 10.6875 31.714844 L 25.375 32.296875 L 14.632812 21.554688 C 13.941406 20.863281 13.941406 19.742188 14.632812 19.050781 Z M 18.703125 14.980469 " fill-opacity="1" fill-rule="evenodd"/></svg>