<svg width="462" height="463" viewBox="0 0 462 463" fill="none" xmlns="http://www.w3.org/2000/svg">
<path fill-rule="evenodd" clip-rule="evenodd" d="M91.9558 54.9607C98.2626 48.6403 108.488 48.6403 114.795 54.9607L212.731 153.108L207.42 18.9111C207.067 9.97952 214.005 2.45164 222.917 2.09765L275.364 0.0129377C284.276 -0.341057 291.787 6.6127 292.141 15.5443L297.907 161.259L397.316 61.6345C403.623 55.3134 413.849 55.3134 420.156 61.6345L457.27 98.8284C463.577 105.149 463.577 115.397 457.27 121.718L121.454 458.26C115.147 464.58 104.922 464.58 98.6145 458.26L61.5008 421.065C55.1941 414.745 55.1941 404.497 61.5008 398.176L160.91 298.552L15.5102 292.773C6.59783 292.419 -0.340918 284.892 0.0129557 275.96L2.09252 223.4C2.44639 214.468 9.95737 207.515 18.8697 207.869L152.777 213.191L54.8415 115.044C48.5347 108.724 48.5347 98.4757 54.8415 92.1553L91.9558 54.9607Z" fill="#4FBB87"/>
</svg>
