<svg width="462" height="463" viewBox="0 0 462 463" fill="none" xmlns="http://www.w3.org/2000/svg">
<path fill-rule="evenodd" clip-rule="evenodd" d="M370.044 408.039C363.737 414.36 353.512 414.36 347.205 408.039L249.269 309.892L254.58 444.089C254.933 453.02 247.995 460.548 239.083 460.902L186.636 462.987C177.724 463.341 170.213 456.387 169.859 447.456L164.093 301.741L64.6836 401.365C58.3769 407.687 48.1511 407.687 41.8444 401.365L4.73002 364.172C-1.57674 357.85 -1.57674 347.603 4.73002 341.282L340.546 4.74028C346.853 -1.58012 357.078 -1.58012 363.386 4.74029L400.499 41.9349C406.806 48.2553 406.806 58.5031 400.499 64.8236L301.09 164.448L446.49 170.227C455.402 170.581 462.341 178.108 461.987 187.04L459.908 239.6C459.554 248.532 452.043 255.485 443.13 255.131L309.223 249.809L407.159 347.956C413.465 354.276 413.465 364.524 407.159 370.845L370.044 408.039Z" fill="#4FBB87" fill-opacity="0.2"/>
</svg>
