<svg width="122" height="40" viewBox="0 0 122 40" fill="none" xmlns="http://www.w3.org/2000/svg">
<path fill-rule="evenodd" clip-rule="evenodd" d="M4.42276 2.6745C4.72308 2.37345 5.21001 2.37345 5.51033 2.6745L10.1739 7.34941L9.92101 0.957406C9.90419 0.53198 10.2346 0.173416 10.659 0.156555L13.1564 0.0572569C13.5808 0.0403956 13.9384 0.371613 13.9553 0.79704L14.2299 7.73765L18.9636 2.99238C19.2639 2.6913 19.7509 2.6913 20.0512 2.99238L21.8185 4.76399C22.1188 5.06507 22.1188 5.55316 21.8185 5.85424L5.82744 21.8842C5.52709 22.1853 5.04019 22.1853 4.73984 21.8842L2.97253 20.1126C2.67221 19.8115 2.67221 19.3234 2.97253 19.0224L7.70628 14.2771L0.782519 14.0019C0.358125 13.985 0.0277113 13.6264 0.0445622 13.201L0.143588 10.6975C0.160439 10.2721 0.518102 9.9409 0.942496 9.95776L7.31898 10.2113L2.65542 5.53636C2.3551 5.23531 2.3551 4.74719 2.65542 4.44613L4.42276 2.6745Z" fill="#4FBB87"/>
<path d="M23.0847 29.9433C21.2852 29.9433 19.7676 29.5846 18.5318 28.8675C17.2961 28.1284 16.3638 27.1179 15.7351 25.8356C15.1064 24.5534 14.792 23.0756 14.792 21.4021C14.792 19.707 15.1172 18.2183 15.7676 16.936C16.418 15.6538 17.3611 14.654 18.5969 13.9369C19.8327 13.1979 21.3178 12.8285 23.0522 12.8285C24.4614 12.8285 25.7404 13.0893 26.8897 13.6109C28.0387 14.1107 28.9708 14.8388 29.6862 15.795C30.4235 16.7513 30.8572 17.8923 30.9871 19.218H26.7594C26.6294 18.6095 26.3909 18.0987 26.0441 17.6858C25.7187 17.2511 25.3069 16.9251 24.8083 16.7078C24.3313 16.4688 23.811 16.3492 23.2473 16.3492C22.4234 16.3492 21.7188 16.5557 21.1335 16.9686C20.5481 17.3815 20.1037 17.9683 19.8001 18.729C19.5183 19.4679 19.3774 20.359 19.3774 21.4021C19.3774 22.4018 19.5183 23.2929 19.8001 24.0753C20.082 24.836 20.5047 25.4336 21.0684 25.8684C21.6538 26.2813 22.3801 26.4876 23.2473 26.4876C24.1795 26.4876 24.9384 26.216 25.5237 25.6728C26.1306 25.1293 26.5209 24.3687 26.6946 23.3907H30.922C30.792 24.7382 30.4018 25.9116 29.7513 26.9113C29.1008 27.8896 28.2121 28.6391 27.0848 29.1609C25.979 29.6824 24.6457 29.9433 23.0847 29.9433ZM38.7456 29.9105C37.6615 29.9105 36.6642 29.7149 35.7537 29.3237C34.8647 28.9107 34.0842 28.324 33.412 27.5634C32.7619 26.8028 32.2524 25.9009 31.8838 24.8577C31.5367 23.7928 31.3633 22.6301 31.3633 21.3695C31.3633 19.6526 31.667 18.1639 32.2741 16.9034C32.9025 15.6212 33.7592 14.6215 34.843 13.9043C35.9489 13.1871 37.2278 12.8285 38.6805 12.8285C39.786 12.8285 40.7509 13.035 41.5748 13.4479C42.4204 13.8608 43.125 14.4476 43.6887 15.2082C44.274 15.9689 44.7077 16.8708 44.9894 17.914C45.293 18.9572 45.4447 20.109 45.4447 21.3695C45.4447 23.043 45.1845 24.5317 44.6643 25.8356C44.1655 27.1179 43.4177 28.1177 42.4204 28.8347C41.4231 29.5521 40.198 29.9105 38.7456 29.9105ZM39.9163 26.4223C40.7185 26.4223 41.4231 26.2267 42.0302 25.8356C42.637 25.4227 43.1033 24.836 43.4284 24.0753C43.7752 23.3146 43.9486 22.4127 43.9486 21.3695C43.9486 20.5654 43.8511 19.8591 43.656 19.2506C43.4608 18.6203 43.1792 18.0879 42.8107 17.6532C42.4635 17.2185 42.0409 16.8926 41.5421 16.6752C41.0653 16.4362 40.5234 16.3166 39.9163 16.3166C39.1141 16.3166 38.4095 16.5231 37.8025 16.936C37.1954 17.3272 36.7183 17.9031 36.3715 18.6638C36.0464 19.4027 35.8837 20.3046 35.8837 21.3695C35.8837 22.4127 36.0464 23.3146 36.3715 24.0753C36.7183 24.836 37.1954 25.4227 37.8025 25.8356C38.4095 26.2267 39.1141 26.4223 39.9163 26.4223ZM44.1113 29.6171V22.3149L44.5991 21.3043L44.1113 19.0224V13.1219H48.2739V29.6171H44.1113ZM50.8144 29.6171V13.1219H54.9119V20.6198L54.0663 20.7176C54.0663 19.0441 54.3265 17.6206 54.8467 16.447C55.3672 15.2734 56.1043 14.3824 57.0581 13.7739C58.0123 13.1436 59.1503 12.8285 60.473 12.8285C61.4051 12.8285 62.2397 12.9698 62.9771 13.2523C63.7358 13.5131 64.3646 13.926 64.8631 14.491C65.3833 15.0344 65.7736 15.719 66.0338 16.5448C66.3158 17.3707 66.4568 18.3487 66.4568 19.4788V29.6171H62.0339V20.6198C62.0339 19.8156 61.9581 19.1528 61.8061 18.6312C61.6761 18.1096 61.4593 17.6967 61.1559 17.3924C60.8739 17.0881 60.5271 16.8708 60.1152 16.7404C59.7249 16.61 59.2696 16.5448 58.7494 16.5448C58.1206 16.5448 57.5352 16.7078 56.9933 17.0338C56.4511 17.3598 56.0177 17.914 55.6923 18.6964C55.3889 19.457 55.2373 20.5002 55.2373 21.8259V29.6171H50.8144ZM76.5579 29.9758C74.7798 29.9758 73.2299 29.6171 71.9072 28.9C70.6065 28.1612 69.5875 27.1504 68.8505 25.8684C68.1348 24.5643 67.7773 23.0756 67.7773 21.4021C67.7773 19.6852 68.1348 18.1857 68.8505 16.9034C69.5875 15.6212 70.6065 14.6215 71.9072 13.9043C73.2299 13.1653 74.7798 12.7959 76.5579 12.7959C78.357 12.7959 79.9073 13.1653 81.2082 13.9043C82.5306 14.6215 83.5496 15.6212 84.265 16.9034C84.9806 18.1857 85.3381 19.6852 85.3381 21.4021C85.3381 23.0756 84.9806 24.5643 84.265 25.8684C83.5496 27.1504 82.5306 28.1612 81.2082 28.9C79.9073 29.6171 78.357 29.9758 76.5579 29.9758ZM76.5579 26.3898C77.4683 26.3898 78.2381 26.1942 78.8665 25.8031C79.4953 25.3901 79.9724 24.8142 80.2975 24.0753C80.6443 23.3146 80.818 22.4236 80.818 21.4021C80.818 20.6198 80.7204 19.9243 80.5253 19.3158C80.3516 18.6855 80.0807 18.153 79.7121 17.7184C79.3436 17.2837 78.8882 16.9469 78.3463 16.7078C77.8261 16.4688 77.2298 16.3492 76.5579 16.3492C75.6471 16.3492 74.8777 16.5557 74.2489 16.9686C73.6201 17.3815 73.1323 17.9683 72.7855 18.729C72.4601 19.4896 72.2974 20.3807 72.2974 21.4021C72.2974 22.4236 72.4601 23.3146 72.7855 24.0753C73.1323 24.8142 73.6201 25.3901 74.2489 25.8031C74.8777 26.1942 75.6471 26.3898 76.5579 26.3898ZM86.9743 36.5609V13.1219H91.0717V18.566L90.7139 21.337L91.3968 24.2057V36.5609H86.9743ZM96.7301 29.9105C95.2343 29.9105 93.9768 29.5411 92.9577 28.8022C91.9604 28.0634 91.2127 27.0526 90.7139 25.7706C90.2371 24.4665 89.9986 22.9995 89.9986 21.3695C89.9986 19.6744 90.2478 18.1857 90.7466 16.9034C91.2451 15.6212 91.9822 14.6215 92.9577 13.9043C93.955 13.1871 95.1802 12.8285 96.6325 12.8285C97.7167 12.8285 98.703 13.035 99.592 13.4479C100.502 13.8391 101.283 14.415 101.933 15.1756C102.584 15.9363 103.082 16.8382 103.43 17.8814C103.776 18.9246 103.95 20.0873 103.95 21.3695C103.95 23.0647 103.635 24.5643 103.007 25.8684C102.399 27.1504 101.554 28.1501 100.47 28.8675C99.3862 29.5628 98.1393 29.9105 96.7301 29.9105ZM95.4294 26.4223C96.2316 26.4223 96.9252 26.2267 97.5106 25.8356C98.1176 25.4227 98.5947 24.836 98.9415 24.0753C99.2886 23.3146 99.462 22.4127 99.462 21.3695C99.462 20.3046 99.2886 19.4027 98.9415 18.6638C98.5947 17.9031 98.1176 17.3272 97.5106 16.936C96.9252 16.5231 96.2316 16.3166 95.4294 16.3166C94.6272 16.3166 93.9226 16.5231 93.3156 16.936C92.7085 17.3272 92.2317 17.9031 91.8846 18.6638C91.5378 19.4027 91.3644 20.3046 91.3644 21.3695C91.3644 22.1519 91.4619 22.8582 91.6571 23.4885C91.8522 24.1188 92.1231 24.6512 92.4699 25.0859C92.8388 25.5205 93.2721 25.8573 93.7709 26.0964C94.2694 26.3138 94.8224 26.4223 95.4294 26.4223ZM106.849 36.724L110.622 27.3678L111.402 26.4223L116.248 13.1219H120.703L111.207 36.724H106.849ZM110.264 30.3345L103.435 13.1219H108.215L112.703 26.3573L110.264 30.3345Z" fill="#404D47"/>
</svg>
